<?xml version="1.0" encoding="UTF-8" standalone="no"?>
<!-- Created with Inkscape (http://www.inkscape.org/) -->

<svg
   width="68.480225mm"
   height="62.580132mm"
   viewBox="0 0 68.480225 62.580132"
   version="1.1"
   id="svg1"
   inkscape:version="1.3 (0e150ed6c4, 2023-07-21)"
   sodipodi:docname="bunmi logo.svg"
   inkscape:export-filename="bunmi logo.svg"
   inkscape:export-xdpi="24.190475"
   inkscape:export-ydpi="24.190475"
   xmlns:inkscape="http://www.inkscape.org/namespaces/inkscape"
   xmlns:sodipodi="http://sodipodi.sourceforge.net/DTD/sodipodi-0.dtd"
   xmlns="http://www.w3.org/2000/svg"
   xmlns:svg="http://www.w3.org/2000/svg">
  <sodipodi:namedview
     id="namedview1"
     pagecolor="#ffffff"
     bordercolor="#000000"
     borderopacity="0.25"
     inkscape:showpageshadow="2"
     inkscape:pageopacity="0.0"
     inkscape:pagecheckerboard="0"
     inkscape:deskcolor="#d1d1d1"
     inkscape:document-units="px"
     showborder="false"
     inkscape:lockguides="false"
     showguides="false"
     inkscape:zoom="1.529922"
     inkscape:cx="106.8682"
     inkscape:cy="115.36536"
     inkscape:window-width="1366"
     inkscape:window-height="689"
     inkscape:window-x="-9"
     inkscape:window-y="-9"
     inkscape:window-maximized="1"
     inkscape:current-layer="layer1">
    <sodipodi:guide
       position="73.08006,49.483301"
       orientation="0,-1"
       id="guide114"
       inkscape:locked="false" />
  </sodipodi:namedview>
  <defs
     id="defs1" />
  <g
     inkscape:label="Layer 1"
     inkscape:groupmode="layer"
     id="layer1"
     transform="translate(-95.988689,-166.55525)">
    <g
       id="g2"
       transform="matrix(1.0028421,0,0,0.89084455,-0.37012204,18.275447)">
      <path
         id="path112"
         style="font-weight:bold;font-size:3.175px;font-family:'Segoe Print';-inkscape-font-specification:'Segoe Print, Bold';white-space:pre;inline-size:45.0293;opacity:1;fill:#00ffff;fill-opacity:1;stroke:#333333;stroke-width:4.87781;stroke-dasharray:none;stroke-opacity:1"
         d="m 113.31859,169.76041 c -0.0619,0.19879 -0.097,0.49524 -0.1055,0.88963 -0.0112,0.5539 -0.0426,1.18816 -0.0941,1.90285 -0.0629,0.85763 -0.1304,1.87027 -0.20221,3.03761 -0.10102,1.63789 -0.19392,2.96915 -0.27926,3.99355 -0.31432,-1.03037 -0.66777,-2.40027 -1.06067,-4.10959 -0.39288,-1.70937 -0.63641,-3.07921 -0.73072,-4.10959 -0.0606,-0.63726 -0.13624,-1.01564 -0.226,-1.13477 -0.0899,-0.11906 -0.16933,-0.17833 -0.23891,-0.17833 -0.10778,0 -0.20481,0.0773 -0.29013,0.23207 -0.0832,0.14906 -0.13446,0.30696 -0.15462,0.47371 -0.0177,0.1608 -0.0306,0.46764 -0.0372,0.92027 -0.01,0.94106 -0.10773,2.6028 -0.29632,4.98516 l -0.24565,3.01049 -0.003,0.0537 c -0.0898,0.89336 -0.13497,1.57811 -0.13497,2.05455 0,0.6014 0.0303,1.00038 0.0911,1.19706 0.0628,0.20246 0.16743,0.30391 0.31339,0.30391 0.0921,0 0.1872,-0.13985 0.28598,-0.41995 0.101,-0.27989 0.15957,-0.73858 0.17531,-1.37589 0.0134,-0.52993 0.0287,-0.93506 0.0465,-1.21514 l 0.0403,-0.80374 c 0.13918,-2.71588 0.24242,-4.44354 0.30977,-5.18208 0.4962,2.41214 1.01277,4.52384 1.54937,6.33443 0.0515,0.17865 0.13169,0.51482 0.23944,1.00919 0.0695,0.32762 0.13573,0.59272 0.19858,0.7952 0.0347,0.10863 0.0654,0.19132 0.0921,0.25267 0.22486,-0.0924 0.45102,-0.18298 0.67849,-0.27176 0.029,-0.0798 0.0497,-0.16249 0.0615,-0.24866 0.0224,-0.16686 0.0336,-0.4232 0.0336,-0.76857 v -0.30391 c 0,-0.30374 0.067,-1.53312 0.20168,-3.68914 0.13471,-2.15603 0.27329,-3.91616 0.41475,-5.28003 0.065,-0.58968 0.0978,-1.04529 0.0978,-1.36684 0,-0.39471 -0.0315,-0.72332 -0.0957,-0.9881 z m 35.91269,0.0964 c -0.37809,0.19685 -0.71965,0.61181 -1.02447,1.24529 -0.44223,0.91896 -0.6635,1.91189 -0.6635,2.97934 0,0.59933 0.0569,1.11355 0.17066,1.54166 0.11561,0.42245 0.28365,0.76428 0.50473,1.02677 0.22316,0.26258 0.5548,0.59689 0.995,1.00216 0.30226,0.27956 0.50202,0.51375 0.59937,0.70226 0.0994,0.18251 0.14945,0.37372 0.14945,0.57366 0,0.47946 -0.19811,0.97003 -0.59368,1.47234 -0.39355,0.49659 -0.74835,0.74496 -1.06481,0.74496 -0.18461,0 -0.38325,-0.1283 -0.59627,-0.38529 -0.0405,-0.0457 -0.0853,-0.0688 -0.13394,-0.0688 -0.0791,0 -0.14752,0.1231 -0.20427,0.36871 -0.0568,0.2455 -0.0854,0.51085 -0.0854,0.79619 0,0.35948 0.0635,0.66215 0.18928,0.90773 0.0482,0.0943 0.10284,0.16996 0.16341,0.22806 0.11871,0.0465 0.23889,0.0917 0.35683,0.13914 0.63647,-0.01 1.25036,-0.46428 1.84104,-1.36886 0.59639,-0.91896 0.89415,-1.92944 0.89415,-3.03108 0,-0.66216 -0.11739,-1.22736 -0.35269,-1.69538 -0.23328,-0.47375 -0.59182,-0.9072 -1.07463,-1.30104 -0.46047,-0.37682 -0.74585,-0.69078 -0.85743,-0.94187 -0.10959,-0.25675 -0.16496,-0.56509 -0.16496,-0.9248 0,-0.56511 0.14642,-1.08217 0.43853,-1.5502 0.29415,-0.47377 0.61235,-0.7103 0.95517,-0.7103 0.20085,0 0.35316,0.11131 0.45664,0.33404 0.10341,0.21686 0.15563,0.60761 0.15566,1.17245 0.3915,0 0.58696,-0.50187 0.58696,-1.50649 0,-0.49089 -0.0996,-0.92767 -0.29839,-1.31009 -0.10235,-0.19894 -0.22479,-0.34509 -0.36666,-0.44055 z m -26.7044,0.13061 c -0.0517,0 -0.12754,0.0674 -0.22857,0.20244 -0.10105,0.1303 -0.17158,0.25627 -0.21203,0.37726 -0.038,0.11635 -0.0709,0.42754 -0.0978,0.93484 -0.0178,0.3444 -0.0464,0.71695 -0.0848,1.11719 l -0.18461,2.72968 c -0.1055,1.64756 -0.15825,2.69001 -0.15825,3.12752 0,0.70746 0.0335,1.20545 0.10085,1.49395 0.0354,0.14918 0.0835,0.25822 0.14427,0.32903 0.15309,-0.0294 0.30669,-0.0577 0.46026,-0.0849 0.0242,-0.0331 0.0481,-0.0688 0.0725,-0.11102 0.11223,-0.20009 0.15517,-0.51657 0.12825,-0.9494 -0.0359,-0.59573 -0.0543,-1.20061 -0.0543,-1.81494 0,-0.363 0.0371,-1.04301 0.11118,-2.03897 0.0448,-0.55842 0.0678,-0.90527 0.0678,-1.04034 0.0134,-0.25131 0.0446,-0.58865 0.0941,-1.0122 l 0.0114,-0.0964 v -3.08432 c -0.0488,-0.0528 -0.10557,-0.0793 -0.16963,-0.0793 z m 7.48208,0.0929 c -0.10374,0 -0.21277,0.0704 -0.32632,0.21148 -0.11119,0.14078 -0.16653,0.30312 -0.16653,0.48676 0,1.23808 -0.0617,2.54452 -0.18513,3.91921 -0.121,1.37471 -0.27173,2.33145 -0.45199,2.86933 -0.17783,0.53794 -0.39646,0.80675 -0.65574,0.80675 -0.33088,0 -0.70258,-0.36907 -1.11496,-1.10764 -0.13832,-0.24344 -0.27134,-0.36571 -0.39976,-0.36571 -0.14817,0 -0.26801,0.0664 -0.35941,0.19893 -0.0889,0.13223 -0.13343,0.30712 -0.13343,0.52494 0,0.38851 0.22377,0.84977 0.67074,1.38343 0.44697,0.53363 0.8889,0.80071 1.32596,0.80071 0.57044,0 1.01581,-0.42311 1.33683,-1.26839 0.32101,-0.84531 0.54822,-2.11707 0.68159,-3.81623 0.13579,-1.69913 0.20376,-3.04023 0.20376,-4.02218 0,-0.1621 -0.044,-0.30506 -0.13291,-0.429 -0.0865,-0.12805 -0.18405,-0.19189 -0.2927,-0.19189 z m -26.12622,0.01 v 0.72738 c 0.019,0.3969 0.0511,0.86598 0.10601,1.45174 l -0.10601,0.82032 v 7.22054 c 0.0113,0.0788 0.0216,0.15851 0.0356,0.23509 -0.0126,0.0352 -0.0242,0.0737 -0.0356,0.11152 v 4.21106 c 0.15966,1.19712 0.38719,2.18881 0.5311,2.36398 0.0753,0.0912 0.2498,0.0954 0.46026,0.0352 0.34275,-0.25134 0.69213,-0.49712 1.04775,-0.73793 0.32645,-0.42604 0.47573,-0.99054 0.0998,-1.61049 l 0.25547,0.11705 c 0.19898,0.61949 0.39062,0.86263 0.57197,0.88411 0.11704,-0.0739 0.2365,-0.14567 0.35476,-0.21852 0.2822,-0.36376 0.52768,-1.07964 0.71986,-1.40654 0.18239,0.39946 0.3058,0.63151 0.39252,0.74798 0.0632,-0.0358 0.12637,-0.0716 0.18979,-0.107 0.0286,-0.24013 0.0226,-0.65342 0.0848,-1.01119 0.14593,-0.83981 -0.14387,-5.42299 -0.10344,-7.22758 0.0178,-0.75046 0.0528,-2.21468 0.10447,-2.99492 0.0367,-0.5458 0.15486,-1.08003 0.19548,-1.5954 v -0.60281 c -0.0304,-0.32107 -0.12063,-0.6331 -0.31236,-0.93283 -0.7516,0.59707 -0.72969,3.0298 -0.77261,4.70586 -0.0157,0.55391 -0.0344,1.13408 -0.0568,1.74159 -0.0157,0.23808 -0.0291,0.49138 -0.0403,0.75953 -0.0607,1.46514 -0.20007,2.5225 -0.41785,3.17174 -0.21778,0.64322 -0.6119,0.96498 -1.18219,0.96498 -0.17286,0 -0.38517,-0.26511 -0.63661,-0.79519 -0.17357,-0.36914 -0.28241,-2.37607 -0.33511,-3.09338 0.17705,-0.22695 0.87477,-1.76082 -0.196,-2.67894 0.0673,-1.16145 0.36973,-1.54182 0.39665,-1.83954 0.1078,-1.18539 -0.10435,-3.23811 -0.0941,-3.36262 0.002,-0.0242 0.003,-0.032 0.005,-0.0547 h -0.0708 c -0.009,0.0827 -0.0185,0.17431 -0.0522,0.17431 -0.16392,0 -0.28499,0.16683 -0.36356,0.50032 -0.0765,-0.0615 -0.12279,-0.13488 -0.14945,-0.21098 -0.0527,0.04 -0.10648,0.0862 -0.15463,0.14568 -0.0115,-0.21567 -0.0349,-0.42124 -0.0647,-0.60933 z m 0.62626,0.46365 c 0.12027,-0.091 0.23202,-0.15471 0.23944,-0.29487 0.004,-0.0749 -0.002,-0.12886 -0.0124,-0.16878 H 104.569 c -0.0712,0.10308 -0.12167,0.28783 -0.06,0.46365 z m 3.96599,0.0171 c 0.092,-0.0728 0.19527,-0.11886 0.31184,-0.13211 v -0.0698 c -0.21711,-0.10436 -0.39868,-0.19826 -0.5461,-0.27879 h -0.17687 c 0.01,0.01 0.01,0.01 0.0202,0.0181 0.16353,0.15067 0.28966,0.30512 0.39045,0.46265 z m -3.32939,-0.48073 c 0.0102,0.0285 0.0192,0.0231 0.0279,0 z m 14.88399,0 c -0.0799,0.073 -0.19181,0.25745 -0.33563,0.55407 -0.19076,0.39363 -0.54523,1.27589 -1.06377,2.64629 -0.51853,1.37519 -0.91029,2.33968 -1.17444,2.89445 -0.0684,-0.29872 -0.20398,-1.00041 -0.40699,-2.10528 l -0.50732,-2.75329 -5.1e-4,-0.003 c -0.032,-0.21738 -0.0977,-0.45289 -0.19756,-0.70779 -0.10032,-0.25602 -0.20015,-0.38428 -0.30046,-0.38428 -0.18591,0 -0.33652,0.0694 -0.45147,0.20697 -0.11489,0.13757 -0.17272,0.33371 -0.17272,0.58974 0,0.49316 -0.0285,1.11213 -0.0874,1.85662 -0.0561,0.74449 -0.28628,2.55358 -0.68987,5.42721 -0.0163,0.11691 -0.0293,0.22498 -0.0429,0.33506 v 1.8958 c 0.0145,0.0363 0.0285,0.0723 0.046,0.10901 0.10273,0.21349 0.21305,0.32049 0.33045,0.32049 0.0586,0 0.14335,-0.0688 0.25341,-0.20646 0.11248,-0.13765 0.17099,-0.26544 0.17583,-0.38378 0.0171,-0.35569 0.0614,-0.88456 0.13238,-1.58638 0.0734,-0.70179 0.14008,-1.30146 0.20117,-1.79936 0.0613,-0.50264 0.1218,-1.05315 0.18049,-1.65066 l 0.18668,-1.84909 c 0.0368,0.10434 0.10736,0.54038 0.21255,1.30858 0.0464,0.33196 0.12759,0.82039 0.24255,1.46531 0.11497,0.64493 0.22762,1.12649 0.33769,1.44421 0.11005,0.31297 0.23564,0.46917 0.37752,0.46917 0.30574,0 0.7413,-0.76551 1.30631,-2.29717 l 1.2215,-3.20137 0.001,5e-4 c -0.008,0.0949 -0.0236,0.26584 -0.0481,0.51239 -0.0684,0.68284 -0.14383,1.66204 -0.22703,2.93764 -0.0833,1.27087 -0.12515,2.34702 -0.12515,3.229 0,0.76765 0.10839,1.21944 0.32477,1.3563 0.15938,-0.0365 0.31932,-0.0716 0.47939,-0.10649 0.0243,-0.0304 0.0465,-0.065 0.0656,-0.10449 0.0858,-0.1707 0.12826,-0.49049 0.12826,-0.95996 0,-0.18494 -0.0124,-0.38163 -0.0367,-0.59023 -0.0342,-0.27034 -0.0512,-0.53416 -0.0512,-0.79018 0,-0.20861 0.0268,-0.89146 0.0807,-2.04852 0.005,-0.10816 0.0108,-0.20219 0.016,-0.30843 v -5.57037 c -0.0636,-0.0698 -0.12488,-0.12175 -0.18306,-0.15221 z m 12.52062,0 c -0.24277,0.16177 -0.47995,0.45068 -0.71056,0.86803 -0.37468,0.68153 -0.68016,1.55962 -0.91793,2.63475 -0.23773,1.07508 -0.35683,2.04451 -0.35683,2.908 0,0.73228 0.12477,1.44348 0.37389,2.13341 0.21446,0.59013 0.45553,0.9254 0.72349,1.00768 0.10112,0.004 0.20251,0.009 0.30357,0.012 0.41816,-0.0387 0.76261,-0.22144 1.03273,-0.55004 0.30623,-0.37248 0.60657,-0.89935 0.90139,-1.58085 0.29668,-0.68144 0.52236,-1.40543 0.67643,-2.17159 0.15594,-0.77037 0.23375,-1.42454 0.23375,-1.96211 0,-0.60952 -0.0299,-1.08758 -0.089,-1.43467 -0.0571,-0.35133 -0.17255,-0.68981 -0.34753,-1.01572 -0.17308,-0.33022 -0.36311,-0.58019 -0.57041,-0.74948 -0.0456,-0.0376 -0.0947,-0.0702 -0.14584,-0.0995 z m 7.99715,0 c -0.0498,0.0429 -0.098,0.10585 -0.1448,0.18887 -0.0968,0.16781 -0.14532,0.31156 -0.14532,0.43201 0,0.81303 -0.0252,1.58099 -0.0761,2.30371 -0.0483,0.71831 -0.0956,1.15239 -0.1417,1.30305 -0.0438,0.15069 -0.36173,0.27357 -0.95413,0.3682 -0.59237,0.0947 -1.05035,0.14217 -1.37303,0.14217 -0.14745,0 -0.2302,-0.0218 -0.24874,-0.0648 0,-0.36566 0.0397,-0.94675 0.12049,-1.7426 0.0693,-0.6926 0.10395,-1.1977 0.10395,-1.51604 0,-0.70551 -0.15186,-1.05791 -0.45612,-1.05791 -0.0898,0 -0.17618,0.0689 -0.25909,0.20646 -0.0805,0.13337 -0.127,0.27322 -0.1386,0.41945 -0.18209,3.59213 -0.34819,5.95134 -0.49801,7.07837 -0.0669,0.49906 -0.10033,0.89053 -0.10033,1.17446 0,0.32253 0.0484,0.56805 0.14532,0.73592 0.009,0.0142 0.0169,0.0266 0.0253,0.0397 0.16999,0.0238 0.3399,0.0492 0.50939,0.0748 0.0546,-0.10307 0.10244,-0.26112 0.14325,-0.47621 0.0805,-0.41294 0.12649,-0.92699 0.13807,-1.54216 0.0275,-1.0497 0.071,-1.69118 0.13084,-1.92344 0.0184,-0.0344 0.20776,-0.075 0.56731,-0.12257 0.36187,-0.047 0.58541,-0.0709 0.67074,-0.0709 0.11756,0 0.33771,-0.0257 0.6604,-0.0774 0.32039,-0.0471 0.53502,-0.0704 0.64333,-0.0704 0.0438,0 0.0656,0.10298 0.0656,0.30944 0,0.31833 -0.031,0.9034 -0.0931,1.75515 -0.0624,0.85611 -0.0931,1.35724 -0.0931,1.50349 0,0.2236 0.0466,0.40644 0.14117,0.54854 0.0945,0.14205 0.19282,0.21299 0.29426,0.21299 0.0945,0 0.20179,-0.11399 0.32167,-0.34209 0.11985,-0.22805 0.17945,-0.45845 0.17945,-0.69071 0,-0.49041 0.0323,-1.47981 0.0967,-2.96829 0.0437,-0.97398 0.0945,-1.82068 0.15101,-2.56441 v -3.53944 c -0.0101,-0.01 -0.0203,-0.019 -0.031,-0.0276 z m 5.26299,0 c -0.017,0.0185 -0.034,0.035 -0.0512,0.0568 -0.11106,0.14438 -0.1722,0.42841 -0.18409,0.85196 -0.0118,0.44757 -0.0448,0.96012 -0.0993,1.53764 -0.0662,0.69301 -0.13751,1.51113 -0.21307,2.4544 -0.10638,1.32351 -0.20441,2.39925 -0.29426,3.22699 -0.33093,-0.83256 -0.70336,-1.93972 -1.11703,-3.32092 -0.4137,-1.38126 -0.67022,-2.48784 -0.76952,-3.32043 -0.0639,-0.51494 -0.14278,-0.8205 -0.23737,-0.91675 -0.0946,-0.0962 -0.17857,-0.14417 -0.25184,-0.14417 -0.11345,0 -0.21475,0.0621 -0.30461,0.18737 -0.0875,0.12043 -0.14218,0.24803 -0.16342,0.38277 -0.0186,0.12994 -0.0311,0.37772 -0.0387,0.74346 -0.01,0.76042 -0.11379,2.10313 -0.31236,4.02821 l -0.25857,2.4328 -0.004,0.0432 c -0.0946,0.7219 -0.1417,1.27573 -0.1417,1.66072 0,0.48594 0.032,0.80806 0.0957,0.96699 0.0662,0.16363 0.17631,0.24514 0.32995,0.24514 0.0969,0 0.19695,-0.11278 0.30097,-0.33907 0.10629,-0.2262 0.16801,-0.59721 0.18463,-1.11217 0.014,-0.4282 0.0305,-0.75524 0.0496,-0.98156 l 0.0429,-0.64952 c 0.14652,-2.1946 0.25494,-3.5902 0.3258,-4.18695 0.52243,1.94913 1.06611,3.6552 1.63108,5.11828 0.0542,0.14433 0.13841,0.41584 0.25185,0.81529 0.0731,0.26474 0.14324,0.47938 0.20944,0.64298 0.0661,0.15861 0.11843,0.25453 0.15618,0.28834 0.0401,0.0338 0.10339,0.0512 0.19083,0.0512 0.14658,0 0.26489,-0.0605 0.35476,-0.18084 0.0923,-0.11546 0.15021,-0.24054 0.17376,-0.37525 0.0236,-0.13482 0.0357,-0.34182 0.0357,-0.62088 v -0.24514 c 0,-0.24543 0.0708,-1.23916 0.21255,-2.98135 0.14182,-1.74216 0.28757,-3.16474 0.43647,-4.26682 0.0118,-0.0819 0.0212,-0.1565 0.031,-0.23208 v -1.55974 c -0.0108,-0.0441 -0.0218,-0.0883 -0.0351,-0.1286 -0.0217,-0.0698 -0.0437,-0.12447 -0.0683,-0.1723 z m -46.389033,0.10147 c -1.534642,0.9357 -0.814505,4.53032 -0.814505,5.10522 0,0.0953 0.0075,0.19911 0.02327,0.31245 0.01572,0.11335 0.0492,0.23571 0.100844,0.36671 0.05165,0.12643 0.111065,0.18053 0.178415,0.16124 l 0.09154,-0.0171 c 0.04489,0 0.06723,0.14831 0.06723,0.44606 0,0.1489 -0.04742,1.18521 -0.141697,3.10895 -0.09207,1.92375 -0.187715,3.42489 -0.286499,4.50291 -0.03818,0.41677 -0.05688,7.57649 -0.05688,7.73745 0,1.03039 0.450951,-0.47531 0.450951,-0.20093 0,0.0878 0.0019,0.13867 0.0021,0.22203 0.09503,-0.10767 0.189467,-0.21542 0.289084,-0.32149 0.0039,-0.31621 0.0088,-0.62288 0.0088,-0.98407 0.0991,0.33728 0.180698,0.57046 0.24823,0.71884 0.08852,-0.0902 0.175971,-0.1806 0.266848,-0.26976 0.01846,-0.39648 -0.0041,-1.00777 -0.04344,-1.69136 0.131813,0.46048 0.228112,0.8097 0.284432,1.0313 -0.0103,-0.13465 0.004,-0.24815 0.0797,-0.24815 0.18821,0 0.47686,-0.0133 0.78503,-0.12007 0.36201,-0.32665 0.72238,-0.65245 1.07255,-0.97201 0.22941,-0.45098 0.38372,-1.08557 0.38372,-1.98473 0.0413,-0.0902 0.0767,-0.19285 0.10965,-0.30089 v -6.63432 c -0.12953,-0.52184 -0.39486,-0.97289 -0.79899,-1.35128 v -9.7e-4 c 0.38655,-0.78241 0.65259,-1.42218 0.79899,-1.92143 v -2.96226 c -0.037,-0.11074 -0.0757,-0.22065 -0.12205,-0.32451 0,-1.14164 -0.25033,-2.53125 -0.4856,-3.2059 -0.12536,-0.0101 -0.25112,-0.02 -0.37648,-0.0301 -0.0162,0.15078 -0.0269,0.33772 -0.0269,0.59577 0,0 -0.48849,-0.4184 -1.01515,-0.68067 -0.35763,-0.0289 -0.715459,-0.0579 -1.073081,-0.0869 z m 0.668673,20.22848 c 0.0102,0.13354 0.0419,0.27277 0.0683,0.36268 0.005,-0.005 0.01,-0.01 0.0145,-0.0141 -0.0122,-0.064 -0.0397,-0.17973 -0.0828,-0.34861 z m 54.21552,-19.72413 c -0.4827,0 -0.94656,0.47927 -1.39112,1.43817 -0.44227,0.95895 -0.80326,2.19445 -1.08393,3.70722 -0.17646,0.95132 -0.29751,1.84392 -0.36304,2.67745 v 2.52272 c 0.0678,0.64335 0.19512,1.2747 0.38268,1.89379 0.29414,0.96486 0.63108,1.44672 1.01051,1.44672 0.58598,0 1.05963,-0.26204 1.42112,-0.78615 0.36146,-0.52414 0.71628,-1.26542 1.06428,-2.22433 0.35025,-0.95885 0.61661,-1.97714 0.79847,-3.0552 0.10975,-0.64627 0.1822,-1.22731 0.22652,-1.75716 v -2.48404 c -0.0152,-0.19636 -0.0329,-0.38072 -0.0553,-0.5385 -0.0674,-0.49437 -0.20355,-0.97104 -0.41009,-1.42964 -0.20432,-0.46461 -0.4291,-0.81573 -0.67384,-1.05389 -0.24248,-0.23821 -0.55076,-0.35716 -0.9257,-0.35716 z m 6.62464,1.04083 c -0.0421,0.28776 -0.0691,0.65496 -0.0761,1.12422 -0.0119,0.84514 -0.0463,1.81252 -0.10189,2.90299 -0.0677,1.30854 -0.1408,2.8539 -0.21823,4.63503 -0.10906,2.49898 -0.20929,4.53031 -0.30149,6.09331 -0.33924,-1.57212 -0.7214,-3.66214 -1.14549,-6.27014 -0.42408,-2.6081 -0.68636,-4.69857 -0.78813,-6.27062 -0.0654,-0.97235 -0.14717,-1.5493 -0.24409,-1.73104 -0.0969,-0.18162 -0.18288,-0.27277 -0.25805,-0.27277 -0.11631,0 -0.22017,0.11842 -0.31236,0.35465 -0.0899,0.22742 -0.14582,0.46795 -0.16755,0.72236 -0.0191,0.24532 -0.0331,0.71339 -0.0398,1.40401 -0.008,1.05485 -0.0671,2.71521 -0.17893,4.95703 v 9.12138 c 0.14155,0.21183 0.29789,0.43283 0.44733,0.63444 0.33725,-0.70671 1.88047,-1.33484 1.89792,-1.71697 l -1.36061,0.63696 c 0.15022,-4.14385 -0.24912,-8.52606 -0.17635,-9.65284 0.53555,3.68035 1.09279,6.90189 1.67194,9.66439 0.0558,0.27259 0.14176,0.78586 0.25805,1.54015 0.0751,0.49985 0.14696,0.90422 0.21462,1.21314 0.0677,0.29949 0.121,0.48103 0.15979,0.54503 0.01,0.0155 0.0213,0.0285 0.0341,0.0402 7.5e-4,6.9e-4 0.001,0.002 0.002,0.003 0.0398,0.0354 0.0937,0.0533 0.16031,0.0533 0.15024,0 0.2714,-0.11364 0.36356,-0.34109 0.0946,-0.21805 0.15378,-0.45441 0.17789,-0.70879 0.024,-0.25458 0.0333,0.33567 0.29115,0.80725 l 0.51095,0.93434 c 0,0 -0.0102,-5.32916 0.21823,-8.89081 0.0213,-0.33132 0.0369,-0.66487 0.0506,-0.99864 v -8.31663 c -0.11844,-0.3671 -0.26426,-0.66921 -0.26426,-0.94187 0,-0.49167 -0.0238,-0.91486 -0.0699,-1.27442 h -0.1629 c -0.0405,0.23643 -0.0839,0.50434 -0.13083,0.50434 -0.0516,0 -0.1026,-0.25241 -0.15411,-0.50434 z m -3.38471,17.40485 c -0.004,0.009 -0.008,0.0165 -0.0109,0.0251 0.021,0.0154 0.0421,0.0307 0.063,0.0462 -0.0169,-0.0226 -0.035,-0.0482 -0.0522,-0.0714 z m -29.84709,-15.12426 c -0.1764,0 -0.31922,0.026 -0.31908,0.0582 1.3e-4,0.0321 0.14286,0.0582 0.31908,0.0582 0.17622,0 0.31948,-0.0262 0.3196,-0.0582 1.4e-4,-0.0321 -0.1432,-0.0582 -0.3196,-0.0582 z m -26.34395,0.63747 c 0.3233,0 0.48509,0.29447 0.48509,0.8841 0,0.45862 -0.12999,1.0218 -0.39045,1.68885 -0.26044,0.66118 -0.52096,1.1286 -0.7814,1.40251 -0.45801,0.49422 -0.68729,0.88699 -0.68729,1.17898 0,0.4167 0.03182,0.69421 0.09467,0.83136 0.065,0.13717 0.20319,0.20546 0.41424,0.20546 0.0764,0 0.19517,-0.092 0.35683,-0.27679 0.15942,-0.18478 0.24783,-0.27779 0.26581,-0.27779 0.22899,0 0.41224,0.16686 0.54921,0.50033 0.1369,0.32749 0.20582,0.70283 0.20582,1.12572 0,0.69682 -0.16813,1.38513 -0.50267,2.06409 -0.33454,0.67303 -0.61101,1.00919 -0.83105,1.00919 h -0.16548 c -0.28956,0 -0.591811,1.1899 -0.715219,2.29215 -0.08598,-1.0523 -0.165642,-1.9508 -0.160315,-2.1309 l 0.03361,-1.2061 c 0,-0.38118 0.0675,-1.80462 0.202205,-4.27035 0.134734,-2.46573 0.217847,-3.82997 0.249264,-4.092 0.03144,-0.2621 0.193225,-0.48244 0.485095,-0.66107 0.29186,-0.17865 0.58896,-0.26774 0.89206,-0.26774 z" />
      <path
         id="path114"
         style="font-weight:bold;font-size:3.175px;font-family:'Segoe Print';-inkscape-font-specification:'Segoe Print, Bold';white-space:pre;inline-size:45.0293;opacity:1;fill:#cbf53b;fill-opacity:1;stroke:#800020;stroke-width:0.127336;stroke-dasharray:none;stroke-opacity:1"
         d="m 112.58061,168.75525 c -0.0636,0.2053 -0.0999,0.51199 -0.1086,0.91927 -0.0115,0.57203 -0.0435,1.22706 -0.0967,1.96513 -0.0647,0.88571 -0.13402,1.93102 -0.20789,3.13657 -0.10392,1.69145 -0.19977,3.06623 -0.28754,4.12415 -0.32327,-1.06409 -0.68705,-2.47849 -1.09117,-4.24371 -0.40411,-1.76531 -0.65442,-3.18014 -0.75142,-4.24422 -0.0623,-0.65812 -0.13988,-1.04892 -0.2322,-1.17194 -0.0924,-0.12295 -0.17406,-0.18436 -0.24564,-0.18436 -0.11084,0 -0.21065,0.0802 -0.2984,0.24012 -0.0855,0.15394 -0.13801,0.31657 -0.15876,0.48877 -0.0183,0.16604 -0.0319,0.48298 -0.0388,0.95041 -0.01,0.97185 -0.11063,2.68808 -0.3046,5.14842 l -0.25289,3.10895 -0.003,0.0558 c -0.0924,0.92259 -0.13911,1.62931 -0.13911,2.12135 0,0.62106 0.0317,1.03361 0.0942,1.23675 0.0647,0.20908 0.17207,0.31345 0.32218,0.31345 0.0947,0 0.19266,-0.14477 0.29425,-0.43402 0.10389,-0.28908 0.16431,-0.76244 0.18049,-1.4206 0.0138,-0.54728 0.0298,-0.96559 0.0481,-1.25482 l 0.0413,-0.83037 c 0.14315,-2.80476 0.24929,-4.58868 0.31857,-5.35136 0.51034,2.49108 1.04142,4.67154 1.59332,6.5414 0.053,0.18449 0.13533,0.5323 0.24617,1.04284 0.0716,0.33835 0.13964,0.61221 0.20427,0.82131 0.0357,0.11218 0.0674,0.19735 0.0947,0.26071 0.23129,-0.0954 0.4642,-0.1891 0.69814,-0.2808 0.0298,-0.0823 0.051,-0.16771 0.0631,-0.2567 0.0231,-0.17231 0.0341,-0.43699 0.0341,-0.79367 v -0.31397 c 0,-0.31368 0.0692,-1.5836 0.2079,-3.8102 0.13855,-2.2266 0.28116,-4.04383 0.42664,-5.45233 0.0669,-0.60902 0.10034,-1.07948 0.10034,-1.41156 0,-0.40763 -0.0333,-0.74729 -0.0993,-1.02073 z m 36.93717,0.0995 c -0.38887,0.20328 -0.74043,0.63176 -1.05395,1.28597 -0.45483,0.94902 -0.68211,1.97494 -0.68211,3.07729 0,0.61896 0.0584,1.14979 0.17531,1.5919 0.11891,0.43627 0.2918,0.78985 0.51921,1.06093 0.22951,0.27116 0.57068,0.61578 1.02344,1.0343 0.31089,0.28873 0.5163,0.53072 0.61643,0.72538 0.10223,0.18848 0.15359,0.38577 0.15359,0.59225 0,0.49515 -0.2039,1.00231 -0.61075,1.52107 -0.40478,0.51283 -0.76982,0.76906 -1.0953,0.76906 -0.18987,0 -0.39374,-0.13243 -0.61283,-0.39784 -0.0417,-0.0471 -0.088,-0.0713 -0.13808,-0.0713 -0.0814,0 -0.15159,0.12713 -0.20995,0.38076 -0.0584,0.25355 -0.0874,0.52814 -0.0874,0.82282 0,0.37123 0.065,0.68325 0.19445,0.93686 0.0497,0.0974 0.10579,0.1756 0.16808,0.23559 0.12209,0.0481 0.24584,0.0947 0.36717,0.14368 0.65461,-0.01 1.28572,-0.4794 1.89327,-1.41358 0.6134,-0.94902 0.92001,-1.99285 0.92001,-3.13053 0,-0.68381 -0.12102,-1.26679 -0.36304,-1.75014 -0.23995,-0.48926 -0.60807,-0.93751 -1.10463,-1.34424 -0.47363,-0.38916 -0.76801,-0.7132 -0.88277,-0.97252 -0.11272,-0.26515 -0.1691,-0.58345 -0.1691,-0.95494 0,-0.58359 0.1505,-1.1176 0.45095,-1.60093 0.30252,-0.48927 0.62997,-0.73392 0.98258,-0.73392 0.20658,0 0.36264,0.11558 0.46905,0.34562 0.10636,0.22393 0.16028,0.62729 0.16031,1.21062 0.40267,0 0.60352,-0.51874 0.60352,-1.55624 0,-0.50694 -0.1022,-0.95783 -0.30667,-1.35277 -0.10527,-0.20545 -0.23107,-0.35653 -0.377,-0.45512 z m -27.46615,0.13513 c -0.0531,0 -0.13137,0.0694 -0.2353,0.20896 -0.10392,0.13456 -0.17664,0.26437 -0.21824,0.38931 -0.0392,0.12018 -0.0727,0.4421 -0.10033,0.96599 -0.0184,0.35568 -0.0475,0.74001 -0.0869,1.15336 l -0.19031,2.8196 c -0.10848,1.70146 -0.1629,2.7782 -0.1629,3.23 0,0.73061 0.0346,1.24473 0.10394,1.54267 0.0364,0.15407 0.0865,0.26645 0.14894,0.33958 0.15744,-0.0303 0.31473,-0.0599 0.47268,-0.0879 0.0249,-0.0341 0.0495,-0.0709 0.0744,-0.11454 0.11546,-0.20662 0.15956,-0.53355 0.13187,-0.98055 -0.0369,-0.61523 -0.0553,-1.23977 -0.0553,-1.87421 0,-0.37489 0.038,-1.07673 0.11429,-2.10528 0.0461,-0.57668 0.0692,-0.93501 0.0692,-1.07448 0.0138,-0.25953 0.0458,-0.60796 0.0967,-1.04536 l 0.0114,-0.0995 v -3.1853 c -0.0502,-0.0547 -0.10838,-0.0823 -0.17428,-0.0823 z m 7.69513,0.0964 c -0.10669,0 -0.21829,0.073 -0.3351,0.21851 -0.11434,0.14539 -0.1717,0.31265 -0.1717,0.50233 0,1.27861 -0.0633,2.62762 -0.19031,4.0473 -0.12445,1.4197 -0.27951,2.40777 -0.46491,2.96327 -0.18289,0.55554 -0.40769,0.83287 -0.67436,0.83287 -0.34033,0 -0.72236,-0.38106 -1.14652,-1.14381 -0.14222,-0.25141 -0.27956,-0.37726 -0.41164,-0.37726 -0.15239,0 -0.27524,0.0687 -0.36924,0.20546 -0.0914,0.13657 -0.13757,0.31706 -0.13757,0.54201 0,0.40123 0.23015,0.87751 0.68987,1.42864 0.4597,0.55109 0.91418,0.82685 1.36372,0.82685 0.5867,0 1.04542,-0.43665 1.37561,-1.30959 0.33014,-0.87298 0.56358,-2.18654 0.70073,-3.94131 0.13967,-1.75473 0.20997,-3.13973 0.20997,-4.1538 0,-0.16741 -0.0456,-0.31507 -0.13705,-0.44305 -0.0889,-0.13224 -0.18975,-0.19793 -0.3015,-0.19793 z m -26.8709,0.01 v 0.75149 c 0.0196,0.4099 0.0522,0.89405 0.1086,1.49897 l -0.1086,0.84693 v 7.45664 c 0.0116,0.0815 0.0219,0.16405 0.0362,0.24313 -0.013,0.0364 -0.0245,0.0759 -0.0362,0.11504 v 4.3492 c 0.16423,1.23631 0.39757,2.25994 0.54558,2.44084 0.0775,0.0941 0.25723,0.0987 0.47371,0.0367 0.35254,-0.25956 0.71197,-0.51336 1.07773,-0.76204 0.33575,-0.43996 0.48898,-1.02301 0.10239,-1.66323 l 0.26272,0.12107 c 0.20464,0.63975 0.40197,0.89106 0.58851,0.91324 0.12036,-0.0764 0.24294,-0.15082 0.36459,-0.22605 0.29023,-0.37568 0.54288,-1.11516 0.74055,-1.45275 0.18758,0.41253 0.3147,0.6523 0.40389,0.77259 0.0649,-0.037 0.13024,-0.0739 0.19548,-0.11052 0.0294,-0.24799 0.0223,-0.67487 0.0864,-1.04435 0.1501,-0.8673 -0.1476,-5.6 -0.10601,-7.46367 0.0184,-0.77498 0.0539,-2.2871 0.10705,-3.09286 0.0378,-0.56366 0.1594,-1.11591 0.20117,-1.64817 v -0.62239 c -0.0312,-0.33158 -0.12393,-0.65344 -0.32115,-0.96297 -0.77304,0.61661 -0.75018,3.12867 -0.79433,4.85957 -0.0162,0.57205 -0.0353,1.17147 -0.0585,1.79887 -0.0162,0.24586 -0.0303,0.5072 -0.0419,0.78413 -0.0623,1.51307 -0.20574,2.60474 -0.42974,3.27522 -0.224,0.66428 -0.62928,0.99663 -1.21581,0.99663 -0.17781,0 -0.39606,-0.27387 -0.6547,-0.82131 -0.17852,-0.38122 -0.29074,-2.45357 -0.34494,-3.19435 0.18208,-0.23438 0.90011,-1.81819 -0.20118,-2.76635 0.0692,-1.19945 0.37982,-1.59234 0.40751,-1.89982 0.11087,-1.22419 -0.1066,-3.34454 -0.0962,-3.47314 0.002,-0.0251 0.003,-0.0328 0.005,-0.0563 h -0.073 c -0.009,0.0854 -0.0191,0.17984 -0.0537,0.17984 -0.16858,0 -0.29309,0.17252 -0.37389,0.5169 -0.0788,-0.0636 -0.12568,-0.13943 -0.15309,-0.21801 0.12357,-0.0938 0.23802,-0.15983 0.24565,-0.30442 0.004,-0.0774 -0.002,-0.13308 -0.0124,-0.17431 h -0.17169 c -0.0732,0.10645 -0.12544,0.29714 -0.062,0.47873 -0.0542,0.0411 -0.10929,0.0889 -0.15876,0.15019 -0.0118,-0.22272 -0.0362,-0.43467 -0.0667,-0.62892 z m 1.29855,0 c 0.0105,0.0293 0.02,0.0239 0.0289,0 z m 3.00151,0 c 0.0101,0.01 0.0101,0.01 0.0207,0.019 0.16808,0.1555 0.29818,0.31464 0.40182,0.47722 0.0947,-0.0754 0.20111,-0.12244 0.32115,-0.13614 v -0.0723 c -0.22329,-0.10777 -0.41,-0.20467 -0.56162,-0.28784 z m 12.30705,0 c -0.0822,0.0754 -0.19755,0.26584 -0.34546,0.57216 -0.19621,0.4065 -0.56045,1.31745 -1.09377,2.7327 -0.53334,1.42021 -0.93636,2.41645 -1.20805,2.98938 -0.0704,-0.30852 -0.20956,-1.03311 -0.41837,-2.17409 l -0.5249,-2.85728 c -0.0334,-0.22158 -0.0996,-0.46123 -0.20065,-0.72035 -0.10315,-0.26439 -0.20608,-0.39634 -0.30926,-0.39634 -0.19121,0 -0.34617,0.0714 -0.46439,0.2135 -0.11818,0.14205 -0.17738,0.34492 -0.17738,0.60932 0,0.50931 -0.0299,1.14805 -0.0905,1.91691 -0.0578,0.76883 -0.29444,2.63736 -0.70953,5.60504 -0.0168,0.12074 -0.0299,0.23243 -0.0439,0.3461 v 1.9576 c 0.0149,0.0375 0.0294,0.0751 0.0475,0.11303 0.10567,0.22046 0.21902,0.33053 0.33977,0.33053 0.0604,0 0.14744,-0.0708 0.26064,-0.21299 0.1157,-0.14214 0.17603,-0.27461 0.181,-0.39685 0.0176,-0.36733 0.063,-0.91281 0.13601,-1.6376 0.0754,-0.72476 0.14452,-1.34443 0.20737,-1.85864 0.063,-0.51908 0.12479,-1.08735 0.18515,-1.70442 l 0.19237,-1.90986 c 0.0378,0.10772 0.11007,0.55843 0.21824,1.35178 0.0478,0.3428 0.13155,0.84699 0.24977,1.51302 0.11825,0.66604 0.23382,1.16332 0.34701,1.49144 0.1132,0.32319 0.24246,0.48474 0.38838,0.48474 0.31446,0 0.76242,-0.79072 1.34355,-2.37252 l 1.25666,-3.30585 0.001,5e-4 c -0.008,0.098 -0.0244,0.27435 -0.0496,0.52896 -0.0705,0.70519 -0.14817,1.71625 -0.23375,3.03359 -0.0856,1.31246 -0.12826,2.42415 -0.12826,3.33499 0,0.79278 0.11153,1.25918 0.33408,1.40051 0.16393,-0.0377 0.3282,-0.0741 0.49284,-0.11002 0.025,-0.0314 0.0475,-0.0673 0.0673,-0.108 0.0881,-0.17629 0.13239,-0.50627 0.13239,-0.9911 0,-0.19101 -0.0126,-0.39439 -0.0377,-0.60984 -0.0351,-0.27919 -0.0532,-0.55139 -0.0532,-0.81578 0,-0.21546 0.0279,-0.92042 0.0833,-2.11533 0.005,-0.11172 0.0112,-0.20926 0.0165,-0.31898 v -5.75273 c -0.0654,-0.0721 -0.12841,-0.12578 -0.18825,-0.15723 z m 12.87796,0 c -0.24967,0.16706 -0.49356,0.46516 -0.73072,0.89616 -0.38538,0.70382 -0.69976,1.61085 -0.94431,2.72114 -0.24452,1.11031 -0.36717,2.11119 -0.36717,3.00296 0,0.75625 0.12797,1.49124 0.38424,2.20374 0.22054,0.60944 0.4691,0.95537 0.74469,1.04033 0.10401,0.004 0.20788,0.009 0.31184,0.013 0.43011,-0.04 0.78438,-0.22929 1.06221,-0.56865 0.31496,-0.38469 0.62404,-0.92879 0.92725,-1.63258 0.30515,-0.70376 0.53711,-1.45119 0.69556,-2.24242 0.1604,-0.79555 0.24047,-1.47123 0.24047,-2.0264 0,-0.62947 -0.0302,-1.12345 -0.091,-1.48189 -0.0586,-0.36284 -0.17788,-0.7123 -0.35786,-1.04887 -0.17801,-0.34103 -0.37322,-0.59877 -0.58644,-0.7736 -0.0469,-0.0389 -0.0974,-0.0728 -0.14998,-0.10298 z m 8.22522,0 c -0.0513,0.0444 -0.10092,0.10917 -0.14894,0.19491 -0.0996,0.17329 -0.14945,0.32218 -0.14945,0.44657 0,0.83963 -0.0263,1.63268 -0.0786,2.37906 -0.0498,0.74182 -0.098,1.19014 -0.14532,1.34575 -0.0451,0.15561 -0.37225,0.28254 -0.98154,0.38026 -0.60927,0.0978 -1.07994,0.14669 -1.41182,0.14669 -0.15167,0 -0.23693,-0.0224 -0.25599,-0.0668 0,-0.37763 0.0411,-0.97746 0.12413,-1.79936 0.0713,-0.71527 0.10652,-1.23755 0.10652,-1.56628 0,-0.72862 -0.1561,-1.09258 -0.46904,-1.09258 -0.0924,0 -0.18106,0.0714 -0.26634,0.2135 -0.0828,0.13776 -0.13081,0.282 -0.14272,0.43301 -0.18729,3.70964 -0.3579,6.14599 -0.51198,7.30995 -0.0688,0.51538 -0.10292,0.91992 -0.10292,1.21314 0,0.33309 0.0494,0.58666 0.14894,0.76003 0.009,0.0148 0.0177,0.0278 0.0264,0.0412 0.17485,0.0246 0.34954,0.0505 0.52387,0.0769 0.0561,-0.10646 0.10489,-0.26866 0.14687,-0.49079 0.0828,-0.42646 0.1303,-0.95757 0.14221,-1.5929 0.0284,-1.08403 0.0734,-1.74586 0.13497,-1.98572 0.019,-0.0356 0.21354,-0.078 0.58334,-0.12709 0.37221,-0.0486 0.60212,-0.0728 0.68988,-0.0728 0.12092,0 0.34763,-0.0265 0.67953,-0.0799 0.32954,-0.0486 0.54951,-0.0728 0.66091,-0.0728 0.0451,0 0.0678,0.10678 0.0678,0.31999 0,0.32874 -0.0317,0.93278 -0.0957,1.81241 -0.0641,0.88412 -0.0962,1.40168 -0.0962,1.55271 0,0.23091 0.0485,0.41989 0.14584,0.56664 0.0972,0.1467 0.19768,0.22002 0.30201,0.22002 0.0972,0 0.20767,-0.11807 0.33097,-0.35365 0.12323,-0.23549 0.18462,-0.47297 0.18462,-0.71281 0,-0.50647 0.0335,-1.52858 0.0998,-3.06574 0.045,-1.00585 0.097,-1.88023 0.15514,-2.6483 v -3.65549 c -0.0104,-0.0104 -0.0206,-0.0198 -0.0315,-0.0286 z m 5.41296,0 c -0.0175,0.019 -0.0351,0.0363 -0.0527,0.0588 -0.11421,0.14911 -0.17706,0.44269 -0.18927,0.88009 -0.0121,0.46223 -0.0459,0.99146 -0.10188,1.58787 -0.0682,0.7157 -0.14153,1.56063 -0.21926,2.53477 -0.1094,1.36681 -0.21012,2.47764 -0.30254,3.33249 -0.34038,-0.85985 -0.7231,-2.00304 -1.14858,-3.42943 -0.42547,-1.42646 -0.68962,-2.56959 -0.79175,-3.42943 -0.0657,-0.53179 -0.1468,-0.8475 -0.24409,-0.9469 -0.0973,-0.0994 -0.18374,-0.1487 -0.25909,-0.1487 -0.1167,0 -0.22097,0.0642 -0.31339,0.1934 -0.09,0.12438 -0.14623,0.2562 -0.16808,0.39534 -0.0192,0.13419 -0.0319,0.39032 -0.0398,0.76806 -0.01,0.78527 -0.11691,2.17175 -0.32114,4.15983 l -0.26634,2.51267 -0.004,0.0447 c -0.0973,0.7455 -0.14532,1.31736 -0.14532,1.71496 0,0.50186 0.0326,0.83451 0.0983,0.99864 0.068,0.16899 0.18121,0.25318 0.33925,0.25318 0.0997,0 0.20277,-0.11693 0.30977,-0.35064 0.10931,-0.23357 0.17273,-0.616 0.1898,-1.14783 0.0144,-0.44221 0.031,-0.78048 0.0506,-1.01421 l 0.0444,-0.67061 c 0.1507,-2.26643 0.26224,-3.70782 0.33511,-4.3241 0.53734,2.01292 1.09653,3.77463 1.67763,5.28556 0.0558,0.14909 0.14188,0.42989 0.25857,0.84241 0.0754,0.27341 0.14756,0.49513 0.21565,0.66409 0.068,0.1638 0.12151,0.26297 0.16032,0.29789 0.0413,0.035 0.10657,0.0522 0.19651,0.0522 0.15075,0 0.27267,-0.0619 0.3651,-0.18637 0.0949,-0.11924 0.15472,-0.24817 0.17893,-0.3873 0.0243,-0.13923 0.0362,-0.35327 0.0362,-0.64147 v -0.25318 c 0,-0.25346 0.0728,-1.2801 0.21875,-3.07931 0.14587,-1.7992 0.29572,-3.26781 0.44888,-4.40597 0.0121,-0.0847 0.0215,-0.16157 0.0315,-0.23961 v -1.61098 c -0.0111,-0.0457 -0.0221,-0.091 -0.0357,-0.13261 -0.0223,-0.0721 -0.0461,-0.12896 -0.0713,-0.17834 z m -47.712411,0.10499 c -1.578423,0.96633 -0.837778,4.6788 -0.837778,5.2725 0,0.0984 0.0082,0.20544 0.02431,0.32249 0.01616,0.11705 0.05031,0.24348 0.103429,0.37876 0.05312,0.13058 0.114316,0.18618 0.183587,0.16628 l 0.09412,-0.0176 c 0.04618,0 0.0693,0.15319 0.0693,0.46064 0,0.15379 -0.04886,1.22423 -0.145836,3.21092 -0.09468,1.9867 -0.192657,3.5368 -0.294255,4.6501 -0.03926,0.4304 -0.05947,7.82439 -0.05947,7.99062 0,1.0641 0.464397,-0.49082 0.464397,-0.20746 0,0.0907 0.0019,0.14298 0.0021,0.22906 0.09774,-0.11118 0.194902,-0.22251 0.29736,-0.33204 0.004,-0.32656 0.0088,-0.64323 0.0088,-1.01622 0.101919,0.34832 0.186013,0.58923 0.25547,0.74245 0.09104,-0.0931 0.181142,-0.18672 0.274605,-0.2788 0.01901,-0.40945 -0.0035,-1.04065 -0.04447,-1.74661 0.135577,0.47555 0.234256,0.83611 0.292187,1.06495 -0.01057,-0.13905 0.004,-0.25569 0.08171,-0.25569 0.193575,0 0.490305,-0.0137 0.807265,-0.12407 0.37233,-0.33736 0.74338,-0.67418 1.10359,-1.00418 0.23594,-0.46575 0.39458,-1.12093 0.39458,-2.04951 0.0424,-0.0932 0.079,-0.19936 0.11273,-0.31095 v -6.85133 c -0.13324,-0.53891 -0.40611,-1.0047 -0.82173,-1.39548 v -9.7e-4 c 0.39754,-0.80799 0.67115,-1.46863 0.82173,-1.98421 v -3.05972 c -0.038,-0.11437 -0.078,-0.22727 -0.12566,-0.33455 0,-1.17897 -0.25758,-2.61419 -0.49956,-3.31088 -0.12894,-0.0105 -0.25789,-0.0212 -0.38682,-0.0317 -0.0167,0.15572 -0.0279,0.34888 -0.0279,0.61536 0,0 -0.502405,-0.4319 -1.044119,-0.70277 -0.367831,-0.0299 -0.735764,-0.0596 -1.103589,-0.0894 z m 0.687803,20.89005 c 0.01049,0.13791 0.04334,0.2824 0.07033,0.37524 0.005,-0.005 0.0099,-0.01 0.015,-0.0146 -0.0125,-0.066 -0.04119,-0.18626 -0.08533,-0.36068 z M 154.73681,169.7214 c -0.49648,0 -0.97321,0.4946 -1.43042,1.48489 -0.45491,0.99031 -0.82681,2.26701 -1.11549,3.8293 -0.1815,0.9824 -0.30547,1.90353 -0.37286,2.76434 v 2.6051 c 0.0699,0.66439 0.20064,1.31671 0.39355,1.95609 0.30251,0.99642 0.6487,1.49444 1.03895,1.49444 0.60271,0 1.09016,-0.27052 1.46196,-0.81177 0.37178,-0.54129 0.73686,-1.30739 1.0948,-2.29768 0.36024,-0.99023 0.63367,-2.04184 0.82072,-3.15515 0.11287,-0.66742 0.18765,-1.26726 0.23323,-1.81444 v -2.56541 c -0.0156,-0.20276 -0.0337,-0.39313 -0.0568,-0.55608 -0.0692,-0.51055 -0.20956,-1.00277 -0.42199,-1.47636 -0.21014,-0.47984 -0.44127,-0.84256 -0.69298,-1.08856 -0.24941,-0.24598 -0.56695,-0.36871 -0.95259,-0.36871 z m 6.8134,1.07499 c -0.0433,0.29719 -0.0708,0.67627 -0.0781,1.16089 -0.0122,0.8728 -0.0477,1.87229 -0.10497,2.99843 -0.0697,1.35138 -0.14431,2.94682 -0.22393,4.78624 -0.11218,2.58079 -0.21599,4.67858 -0.31081,6.29273 -0.34892,-1.62355 -0.74138,-3.78222 -1.17754,-6.47558 -0.43617,-2.69347 -0.70674,-4.85206 -0.8114,-6.47558 -0.0673,-1.00417 -0.15113,-1.60013 -0.25081,-1.7878 -0.0997,-0.18759 -0.18745,-0.28131 -0.26479,-0.28131 -0.11962,0 -0.22684,0.12174 -0.32165,0.36569 -0.0924,0.23488 -0.14988,0.48324 -0.17222,0.74597 -0.0197,0.25337 -0.0339,0.73752 -0.0408,1.45074 -0.008,1.08938 -0.0691,2.80359 -0.18411,5.11878 v 9.42026 c 0.14559,0.21875 0.30656,0.44634 0.46026,0.65455 0.34688,-0.72986 1.93378,-1.37811 1.95171,-1.77275 l -1.39939,0.65756 c 0.15449,-4.27947 -0.25639,-8.80513 -0.18152,-9.96881 0.5508,3.80083 1.12382,7.12792 1.71951,9.98087 0.0573,0.28148 0.14618,0.81143 0.26581,1.59039 0.0773,0.51624 0.15071,0.93429 0.2203,1.25331 0.0697,0.30929 0.12455,0.49652 0.16446,0.56262 0.0102,0.016 0.0219,0.0298 0.0351,0.0417 7.6e-4,7e-4 0.001,0.002 0.002,0.003 0.041,0.0366 0.0965,0.0547 0.16498,0.0547 0.15453,0 0.27909,-0.11725 0.37389,-0.35214 0.0973,-0.22518 0.15825,-0.46919 0.18307,-0.7319 0.0247,-0.26292 0.0342,0.34686 0.29943,0.83387 l 0.52542,0.96449 c 0,0 -0.0103,-5.50345 0.22444,-9.18166 0.0219,-0.34218 0.0381,-0.68609 0.0522,-1.03079 v -8.5894 c -0.12183,-0.3791 -0.27202,-0.69142 -0.27202,-0.97302 0,-0.50777 -0.0245,-0.9443 -0.0718,-1.31561 h -0.16704 c -0.0417,0.24416 -0.0865,0.52091 -0.13498,0.52091 -0.053,0 -0.10579,-0.26074 -0.15876,-0.52091 z m -34.17973,2.35494 c -0.18142,0 -0.32854,0.0269 -0.32839,0.0603 1.3e-4,0.0332 0.14715,0.0603 0.32839,0.0603 0.18125,0 0.32825,-0.0271 0.32838,-0.0603 1.5e-4,-0.0332 -0.14695,-0.0603 -0.32838,-0.0603 z m -27.09535,0.65805 c 0.33252,0 0.49853,0.30481 0.49853,0.91376 0,0.4736 -0.13343,1.05473 -0.40131,1.7436 -0.26788,0.68282 -0.535774,1.16585 -0.803647,1.44873 -0.471068,0.51038 -0.706938,0.91612 -0.706938,1.21765 0,0.43035 0.03307,0.71635 0.09774,0.85799 0.06696,0.14165 0.208543,0.21249 0.425612,0.21249 0.07851,0 0.200905,-0.095 0.367174,-0.28583 0.163959,-0.19084 0.255109,-0.28683 0.273569,-0.28683 0.23555,0 0.42385,0.17251 0.56472,0.5169 0.1408,0.33826 0.21152,0.72566 0.21152,1.1624 0,0.71963 -0.17255,1.43021 -0.51663,2.1314 -0.344062,0.69507 -0.629058,1.04234 -0.855362,1.04234 h -0.169623 c -0.297791,0 -0.608971,1.22917 -0.7359,2.3675 -0.08843,-1.08675 -0.170446,-2.01526 -0.16497,-2.20122 l 0.03465,-1.24529 c 0,-0.39366 0.06933,-1.86357 0.207893,-4.40999 0.138563,-2.54647 0.22419,-3.95553 0.256504,-4.22614 0.03233,-0.27066 0.198329,-0.4982 0.498529,-0.68267 0.300189,-0.1845 0.606188,-0.27679 0.917939,-0.27679 z m 57.79365,14.96102 c -0.004,0.009 -0.008,0.0179 -0.0108,0.0266 0.0216,0.0159 0.0436,0.0313 0.0651,0.0472 -0.0174,-0.0233 -0.0366,-0.0499 -0.0543,-0.0739 z" />
      <path
         id="path96"
         style="font-weight:bold;font-size:3.175px;font-family:'Segoe Print';-inkscape-font-specification:'Segoe Print, Bold';white-space:pre;inline-size:45.0293;opacity:1;fill:#800020;fill-opacity:1;stroke-width:0;stroke-dasharray:none;paint-order:markers stroke fill"
         d="m 113.07294,169.20986 c -0.0645,0.21951 -0.10128,0.54709 -0.11016,0.98256 -0.0117,0.61164 -0.0448,1.31209 -0.0988,2.10127 -0.0656,0.94702 -0.13594,2.06506 -0.21099,3.35407 -0.1056,1.80859 -0.20249,3.27832 -0.29167,4.40949 -0.32851,-1.13776 -0.69813,-2.65013 -1.10877,-4.53758 -0.41064,-1.88753 -0.66527,-3.40032 -0.76382,-4.53808 -0.0633,-0.70369 -0.14253,-1.12129 -0.23634,-1.25282 -0.094,-0.13146 -0.17705,-0.19742 -0.24978,-0.19742 -0.11264,0 -0.21335,0.0857 -0.30252,0.2567 -0.0869,0.1646 -0.14079,0.33881 -0.16187,0.52292 -0.0186,0.17757 -0.0323,0.51643 -0.0393,1.01622 -0.009,1.03913 -0.11216,2.8739 -0.30926,5.50458 l -0.25702,3.32444 -0.003,0.0593 c -0.094,0.98648 -0.14119,1.74243 -0.14119,2.26855 0,0.66407 0.0316,1.10494 0.0952,1.32213 0.0657,0.22357 0.17483,0.33556 0.32735,0.33556 0.0963,0 0.19619,-0.15489 0.29943,-0.46415 0.10556,-0.30909 0.16663,-0.81533 0.18307,-1.51906 0.014,-0.58516 0.0303,-1.03246 0.0491,-1.34173 l 0.0419,-0.88763 c 0.14544,-2.99896 0.25331,-4.9066 0.32373,-5.72208 0.51859,2.66355 1.05837,4.99519 1.61918,6.9945 0.0539,0.19726 0.13769,0.5688 0.25031,1.11467 0.0727,0.36178 0.14169,0.65451 0.20737,0.87808 0.0364,0.11996 0.0683,0.21106 0.0962,0.2788 0.235,-0.10203 0.4718,-0.20185 0.70952,-0.29989 0.0302,-0.0882 0.0519,-0.17962 0.0641,-0.27478 0.0235,-0.18425 0.0346,-0.46708 0.0346,-0.84845 v -0.33556 c 0,-0.3354 0.0703,-1.69319 0.21099,-4.07391 0.14079,-2.38077 0.28554,-4.32407 0.43337,-5.83009 0.068,-0.65118 0.1024,-1.15445 0.1024,-1.50952 0,-0.43585 -0.0344,-0.79868 -0.10137,-1.09106 z m 37.53343,0.10649 c -0.39513,0.21733 -0.75192,0.6754 -1.0705,1.37489 -0.46218,1.01473 -0.69349,2.11163 -0.69349,3.29028 0,0.66181 0.0596,1.22919 0.17842,1.70191 0.12084,0.46647 0.2964,0.8444 0.52749,1.13427 0.2332,0.28993 0.5799,0.65863 1.03998,1.10614 0.31589,0.30871 0.52451,0.56747 0.62626,0.7756 0.10387,0.20153 0.15618,0.41268 0.15618,0.63344 0,0.52943 -0.20715,1.07138 -0.62057,1.62606 -0.41131,0.54834 -0.78217,0.82231 -1.1129,0.82231 -0.19293,0 -0.40004,-0.14169 -0.62265,-0.42547 -0.0423,-0.0504 -0.0897,-0.0758 -0.14067,-0.0758 -0.0828,0 -0.15374,0.1357 -0.21305,0.40689 -0.0594,0.27109 -0.089,0.5645 -0.089,0.87959 0,0.39693 0.0661,0.73099 0.19756,1.00215 0.0504,0.10416 0.10735,0.18752 0.17065,0.25167 0.12404,0.0515 0.24959,0.10131 0.37287,0.15371 0.66519,-0.01 1.30693,-0.51266 1.9243,-1.51151 0.62331,-1.01474 0.93448,-2.13059 0.93448,-3.34705 0,-0.73115 -0.12278,-1.3549 -0.36872,-1.8717 -0.24381,-0.52315 -0.61814,-1.00229 -1.12273,-1.43718 -0.48127,-0.41609 -0.78013,-0.76256 -0.89673,-1.03983 -0.11455,-0.28349 -0.17169,-0.62405 -0.17169,-1.02124 0,-0.62399 0.15289,-1.19463 0.45819,-1.71145 0.30741,-0.52316 0.6398,-0.78465 0.99809,-0.78465 0.20991,0 0.36869,0.12328 0.47681,0.36921 0.10808,0.23944 0.16287,0.67082 0.1629,1.29452 0.40918,0 0.61334,-0.5544 0.61334,-1.66373 0,-0.54204 -0.10357,-1.02443 -0.31133,-1.44672 -0.10697,-0.21967 -0.23491,-0.38086 -0.3832,-0.48626 z m -27.90934,0.14418 c -0.0539,0 -0.13385,0.0744 -0.23944,0.22353 -0.1056,0.14388 -0.17908,0.28284 -0.22134,0.41643 -0.0398,0.12849 -0.0743,0.47263 -0.1024,1.0328 -0.0186,0.38031 -0.048,0.79128 -0.088,1.23323 l -0.19341,3.01451 c -0.11024,1.81926 -0.16549,2.97043 -0.16549,3.45353 0,0.7812 0.0351,1.33112 0.1055,1.64967 0.037,0.16474 0.0875,0.285 0.151,0.36319 0.15998,-0.0324 0.32047,-0.064 0.48095,-0.0939 0.0253,-0.0366 0.0502,-0.0759 0.0755,-0.12257 0.11731,-0.22097 0.16209,-0.5704 0.13394,-1.04836 -0.0375,-0.65783 -0.0563,-1.32595 -0.0563,-2.00432 0,-0.40085 0.0388,-1.1512 0.11636,-2.25095 0.0469,-0.61661 0.0704,-0.99967 0.0704,-1.14884 0.014,-0.27749 0.0471,-0.65002 0.0988,-1.11769 l 0.0114,-0.1065 v -3.40582 c -0.051,-0.0585 -0.11042,-0.0879 -0.17738,-0.0879 z m 7.81924,0.10297 c -0.10841,0 -0.22209,0.0779 -0.34079,0.23359 -0.1162,0.15545 -0.17377,0.33467 -0.17377,0.5375 0,1.3671 -0.0643,2.80963 -0.19341,4.3276 -0.12646,1.51798 -0.28427,2.57424 -0.47267,3.16821 -0.18584,0.594 -0.41423,0.89065 -0.68522,0.89065 -0.34581,0 -0.73412,-0.40764 -1.16513,-1.2232 -0.14451,-0.26881 -0.28416,-0.40337 -0.41836,-0.40337 -0.15486,0 -0.27941,0.0733 -0.37494,0.21953 -0.0928,0.14601 -0.14014,0.33917 -0.14014,0.57968 0,0.429 0.2341,0.93832 0.70124,1.52761 0.46713,0.58922 0.92914,0.8841 1.38596,0.8841 0.59617,0 1.06182,-0.46714 1.39733,-1.40051 0.33549,-0.93342 0.57273,-2.33784 0.7121,-4.21407 0.14192,-1.87622 0.21307,-3.35686 0.21307,-4.44113 0,-0.179 -0.0462,-0.33687 -0.13911,-0.47371 -0.0904,-0.1414 -0.1926,-0.21198 -0.30616,-0.21198 z m -27.30478,0.01 v 0.80323 c 0.02,0.43828 0.0528,0.95613 0.11015,1.60295 l -0.11015,0.9057 v 7.97304 c 0.0117,0.0872 0.0223,0.17513 0.0367,0.25971 -0.0132,0.0389 -0.0247,0.0813 -0.0367,0.12307 v 4.6501 c 0.16688,1.32192 0.40399,2.41671 0.55437,2.61013 0.0787,0.10055 0.26149,0.10549 0.48146,0.0392 0.35824,-0.27752 0.72365,-0.54889 1.09532,-0.81479 0.34116,-0.47042 0.49679,-1.09372 0.10395,-1.77825 l 0.26684,0.1291 c 0.20796,0.68408 0.40827,0.95284 0.59782,0.97654 0.12231,-0.0817 0.24718,-0.16119 0.3708,-0.24163 0.29491,-0.40169 0.55157,-1.19225 0.75244,-1.55321 0.1906,0.44109 0.31947,0.69722 0.41011,0.82583 0.0659,-0.0396 0.13228,-0.0787 0.19857,-0.11805 0.0298,-0.26516 0.0229,-0.72163 0.088,-1.11669 0.15252,-0.92734 -0.14983,-5.9879 -0.10756,-7.98057 0.0187,-0.82866 0.0546,-2.44531 0.1086,-3.30686 0.0384,-0.60268 0.16235,-1.19309 0.20479,-1.76219 v -0.6656 c -0.0316,-0.35454 -0.12591,-0.69881 -0.32632,-1.02977 -0.78551,0.6593 -0.76292,3.34539 -0.80779,5.19614 -0.0164,0.61164 -0.0359,1.25261 -0.0594,1.92343 -0.0164,0.2629 -0.0302,0.54229 -0.0418,0.8384 -0.0633,1.61783 -0.20938,2.78537 -0.437,3.50226 -0.2276,0.71028 -0.63945,1.06546 -1.23546,1.06546 -0.18068,0 -0.40223,-0.29273 -0.66505,-0.87809 -0.18139,-0.4076 -0.29555,-2.62331 -0.35062,-3.41536 0.18502,-0.25062 0.91429,-1.94446 -0.20479,-2.95824 0.0705,-1.28251 0.3866,-1.70268 0.41475,-2.03144 0.11266,-1.30895 -0.10886,-3.57574 -0.0983,-3.71325 0.002,-0.0269 0.003,-0.0352 0.005,-0.0603 h -0.074 c -0.008,0.0913 -0.0196,0.19239 -0.0548,0.19239 -0.17129,0 -0.29799,0.18434 -0.3801,0.55257 -0.08,-0.0679 -0.12832,-0.14906 -0.15617,-0.23308 -0.0551,0.0441 -0.11102,0.0952 -0.16136,0.16074 -0.012,-0.23813 -0.0367,-0.46493 -0.0678,-0.67262 z m 4.79911,0.53097 c 0.0962,-0.0807 0.20433,-0.13103 0.32632,-0.14568 v -0.0774 c -0.22691,-0.11523 -0.41686,-0.219 -0.57093,-0.30792 h -0.18514 c 0.0103,0.01 0.0104,0.01 0.0212,0.0201 0.17091,0.16638 0.30321,0.3369 0.40855,0.51088 z m -4.08184,-0.53097 c -0.0743,0.11381 -0.12754,0.31773 -0.063,0.51188 0.12569,-0.1004 0.24255,-0.17076 0.2503,-0.32551 0.004,-0.0827 -0.002,-0.14229 -0.0129,-0.18637 z m 0.60248,0 c 0.0107,0.0314 0.02,0.0256 0.0289,0 z m 15.55575,0 c -0.0836,0.0807 -0.20086,0.28431 -0.35114,0.61184 -0.19938,0.43464 -0.56993,1.40885 -1.11187,2.92207 -0.54194,1.51853 -0.95111,2.58375 -1.22718,3.19636 -0.0717,-0.32988 -0.21292,-1.1048 -0.4251,-2.32481 l -0.53059,-3.04012 c -0.0333,-0.24092 -0.10201,-0.50245 -0.20686,-0.78515 -0.10481,-0.28271 -0.20959,-0.42397 -0.31442,-0.42397 -0.1943,0 -0.3515,0.0761 -0.47164,0.22806 -0.12009,0.1519 -0.18048,0.36883 -0.18048,0.65153 0,0.54455 -0.0302,1.22793 -0.0916,2.05002 -0.0589,0.82209 -0.29912,2.8197 -0.72089,5.99284 -0.017,0.12911 -0.0308,0.24867 -0.045,0.37022 v 2.09323 c 0.0152,0.04 0.0301,0.08 0.0486,0.12055 0.10739,0.23575 0.22223,0.35365 0.34493,0.35365 0.0613,0 0.14975,-0.076 0.26479,-0.22806 0.11757,-0.15198 0.17906,-0.29326 0.1841,-0.42397 0.0178,-0.39275 0.0639,-0.97618 0.13808,-1.75113 0.0768,-0.77495 0.14713,-1.43744 0.21099,-1.98723 0.0639,-0.55504 0.12691,-1.16271 0.18824,-1.82247 l 0.19549,-2.04199 c 0.0383,0.11521 0.11193,0.59693 0.22185,1.44522 0.0485,0.36653 0.13328,0.90588 0.25341,1.61801 0.12015,0.71216 0.23766,1.24358 0.35269,1.59441 0.11502,0.34559 0.24631,0.51841 0.39458,0.51841 0.31952,0 0.77476,-0.84548 1.36527,-2.53679 l 1.27683,-3.53492 0.001,5e-4 c -0.008,0.10476 -0.0245,0.2934 -0.0501,0.56563 -0.0717,0.75402 -0.15042,1.83502 -0.23737,3.24357 -0.087,1.40332 -0.13032,2.59216 -0.13032,3.56607 0,0.84767 0.11311,1.34634 0.33925,1.49745 0.16656,-0.0403 0.3338,-0.079 0.50111,-0.11754 0.0253,-0.0335 0.0481,-0.0719 0.0683,-0.11554 0.0895,-0.1885 0.13446,-0.54152 0.13446,-1.05993 0,-0.20421 -0.0133,-0.42167 -0.0388,-0.65203 -0.0357,-0.29853 -0.0537,-0.58933 -0.0537,-0.87204 0,-0.23038 0.0286,-0.98438 0.0848,-2.26201 0.005,-0.11946 0.0112,-0.22377 0.0165,-0.34108 v -6.15058 c -0.0665,-0.0772 -0.13055,-0.13466 -0.19135,-0.16828 z m 13.08535,0 c -0.25369,0.17862 -0.50108,0.4976 -0.7421,0.95845 -0.3916,0.75253 -0.71135,1.72233 -0.95983,2.90951 -0.24846,1.18719 -0.37286,2.25741 -0.37286,3.21092 0,0.80861 0.13007,1.59413 0.39044,2.35594 0.2241,0.65164 0.47655,1.02184 0.75659,1.11268 0.10569,0.004 0.21138,0.009 0.31701,0.0135 0.43704,-0.0428 0.79746,-0.24497 1.0798,-0.60782 0.32003,-0.41132 0.63362,-0.9931 0.94172,-1.74561 0.31009,-0.75248 0.54593,-1.55163 0.70695,-2.39764 0.16298,-0.85067 0.24461,-1.57296 0.24461,-2.16656 0,-0.67305 -0.0314,-1.20111 -0.0931,-1.58437 -0.0597,-0.38795 -0.18015,-0.76182 -0.36304,-1.12171 -0.18088,-0.36462 -0.37959,-0.64041 -0.59627,-0.82734 -0.0477,-0.0415 -0.0991,-0.0777 -0.15256,-0.11001 z m 8.35811,0 c -0.0521,0.0474 -0.10218,0.1168 -0.151,0.20846 -0.10122,0.1853 -0.15153,0.34424 -0.15153,0.47722 0,0.89778 -0.0271,1.74577 -0.0802,2.54383 -0.0506,0.79315 -0.0999,1.2728 -0.14791,1.43918 -0.0458,0.16636 -0.37793,0.3019 -0.99705,0.40639 -0.61911,0.10452 -1.09734,0.15672 -1.43456,0.15672 -0.15413,0 -0.24077,-0.0239 -0.26014,-0.0713 0,-0.40378 0.0413,-1.04514 0.12568,-1.92394 0.0724,-0.7648 0.1086,-1.32276 0.1086,-1.67428 0,-0.77903 -0.15883,-1.16842 -0.47681,-1.16842 -0.094,0 -0.18382,0.0761 -0.27047,0.22806 -0.0842,0.14728 -0.13321,0.30168 -0.14532,0.46315 -0.19031,3.96649 -0.36366,6.57177 -0.52025,7.81631 -0.0699,0.55105 -0.10446,0.98351 -0.10446,1.29703 0,0.35614 0.0503,0.62688 0.15152,0.81226 0.008,0.0158 0.0179,0.0298 0.0269,0.0442 0.17767,0.0264 0.355,0.0541 0.53214,0.0824 0.057,-0.11381 0.1068,-0.28843 0.14946,-0.52595 0.0842,-0.45599 0.13218,-1.0236 0.14429,-1.70291 0.0289,-1.1591 0.0743,-1.86689 0.13704,-2.12337 0.0193,-0.0379 0.21736,-0.0831 0.59317,-0.13562 0.37822,-0.052 0.61155,-0.0784 0.70072,-0.0784 0.12287,0 0.35314,-0.0283 0.69039,-0.0854 0.33486,-0.052 0.55857,-0.0779 0.67178,-0.0779 0.0458,0 0.0688,0.11412 0.0688,0.34209 0,0.35152 -0.0323,0.99747 -0.0972,1.93801 -0.0652,0.94533 -0.0978,1.49874 -0.0978,1.66021 0,0.2469 0.0496,0.44891 0.14842,0.60581 0.0988,0.15687 0.20067,0.2351 0.30666,0.2351 0.0988,0 0.21139,-0.12588 0.33667,-0.37776 0.12525,-0.2518 0.18721,-0.50608 0.18721,-0.76254 0,-0.54154 0.0339,-1.63413 0.10135,-3.27773 0.0457,-1.0755 0.0987,-2.01042 0.15773,-2.83166 v -3.90865 c -0.0105,-0.0112 -0.021,-0.0213 -0.032,-0.0306 z m 5.50088,0 c -0.0178,0.0203 -0.036,0.0388 -0.0537,0.0628 -0.11605,0.15944 -0.17998,0.4732 -0.19238,0.94087 -0.0124,0.49424 -0.0466,1.06019 -0.10342,1.69789 -0.0693,0.76524 -0.1439,1.66849 -0.22289,2.71009 -0.11118,1.46143 -0.21379,2.6495 -0.30771,3.56356 -0.34588,-0.91938 -0.73484,-2.14189 -1.1672,-3.66704 -0.43236,-1.52522 -0.70041,-2.74717 -0.80415,-3.66654 -0.0667,-0.5686 -0.14937,-0.90641 -0.24823,-1.0127 -0.0989,-0.10632 -0.18666,-0.15924 -0.26323,-0.15924 -0.11858,0 -0.22464,0.0688 -0.31856,0.20696 -0.0915,0.133 -0.14795,0.2742 -0.17015,0.42296 -0.0195,0.14349 -0.0328,0.41694 -0.0408,0.82082 -0.0101,0.83966 -0.1188,2.32244 -0.32632,4.44817 l -0.27047,2.68647 -0.004,0.0477 c -0.0988,0.79712 -0.14791,1.40839 -0.14791,1.83352 0,0.5366 0.0331,0.89246 0.0998,1.06796 0.0692,0.18068 0.18435,0.27076 0.34494,0.27076 0.10129,0 0.20623,-0.12484 0.31494,-0.37474 0.11109,-0.24977 0.17554,-0.65907 0.19289,-1.2277 0.0147,-0.47284 0.0314,-0.83414 0.0512,-1.08404 l 0.045,-0.71733 c 0.15313,-2.42332 0.26676,-3.96453 0.3408,-4.62348 0.54602,2.15226 1.11456,4.0362 1.70503,5.65175 0.0568,0.1594 0.14414,0.4596 0.26272,0.90069 0.0765,0.29234 0.14955,0.52914 0.21875,0.7098 0.0692,0.17514 0.12398,0.28115 0.16342,0.31848 0.0419,0.0374 0.10822,0.0563 0.19962,0.0563 0.15319,0 0.27635,-0.0664 0.37027,-0.19942 0.0964,-0.12751 0.15742,-0.26567 0.18203,-0.41442 0.0247,-0.14889 0.0372,-0.37755 0.0372,-0.68568 v -0.27077 c 0,-0.27101 0.0737,-1.36854 0.22185,-3.29229 0.14823,-1.92377 0.3005,-3.49444 0.45613,-4.71139 0.0123,-0.0905 0.0223,-0.17274 0.0325,-0.25619 v -1.72199 c -0.0112,-0.0488 -0.0229,-0.0976 -0.0367,-0.14217 -0.0226,-0.0772 -0.0468,-0.13759 -0.0724,-0.19038 z m -48.483473,0.11202 c -1.603482,1.03356 -0.850706,5.00293 -0.850706,5.63769 0,0.1052 0.0079,0.21995 0.02431,0.3451 0.01644,0.12516 0.05155,0.26023 0.105498,0.40488 0.05397,0.13961 0.116297,0.19912 0.18669,0.17783 l 0.09516,-0.019 c 0.0469,0 0.07033,0.16402 0.07033,0.49278 0,0.16444 -0.04939,1.30872 -0.147904,3.43295 -0.09624,2.12425 -0.19618,3.78175 -0.299428,4.9721 -0.03995,0.46019 -0.05947,8.36645 -0.05947,8.5442 0,1.13776 0.471637,-0.52502 0.471637,-0.22203 0,0.0969 0.0021,0.1531 0.0021,0.24513 0.09936,-0.11888 0.19738,-0.23803 0.301495,-0.35514 0.004,-0.34916 0.0093,-0.68771 0.0093,-1.08655 0.103572,0.37246 0.189023,0.62985 0.259608,0.79368 0.09251,-0.0996 0.183766,-0.19942 0.278742,-0.29788 0.01937,-0.43781 -0.0041,-1.11284 -0.04551,-1.86768 0.137769,0.50847 0.238487,0.8941 0.29736,1.1388 -0.01069,-0.14868 0.0038,-0.27378 0.08274,-0.27378 0.196701,0 0.498644,-0.0147 0.820721,-0.13261 0.37835,-0.36072 0.75515,-0.72063 1.12116,-1.07349 0.23978,-0.498 0.40131,-1.19879 0.40131,-2.19168 0.043,-0.0996 0.08,-0.21274 0.11429,-0.33204 v -7.32603 c -0.13538,-0.57624 -0.41283,-1.07411 -0.83519,-1.49194 v -9.7e-4 c 0.40399,-0.86395 0.68219,-1.57058 0.83519,-2.12185 v -3.2712 c -0.0387,-0.12227 -0.0791,-0.24346 -0.12773,-0.35816 0,-1.26061 -0.26144,-2.795 -0.50732,-3.53995 -0.13103,-0.0112 -0.26254,-0.0224 -0.39356,-0.0336 -0.0169,0.16649 -0.0279,0.37312 -0.0279,0.65805 0,0 -0.51073,-0.46186 -1.061186,-0.75149 -0.373599,-0.032 -0.747582,-0.064 -1.121173,-0.0959 z m 57.362363,0.55709 c -0.5045,0 -0.98961,0.52902 -1.45421,1.58787 -0.46227,1.05886 -0.83975,2.42357 -1.13307,4.09402 -0.18444,1.05045 -0.31061,2.03583 -0.37907,2.95624 v 2.78543 c 0.071,0.71039 0.20373,1.4076 0.39975,2.09122 0.3074,1.06542 0.65997,1.59792 1.05653,1.59792 0.61245,0 1.10693,-0.28931 1.48473,-0.86803 0.37779,-0.57877 0.74918,-1.39757 1.1129,-2.45641 0.36605,-1.05879 0.64358,-2.18326 0.83364,-3.37367 0.1147,-0.71363 0.19103,-1.35497 0.23736,-1.94002 v -2.74324 c -0.0159,-0.2168 -0.0344,-0.42054 -0.0579,-0.59477 -0.0704,-0.54588 -0.21336,-1.07194 -0.42924,-1.57833 -0.21353,-0.51305 -0.44806,-0.90087 -0.70383,-1.1639 -0.25343,-0.26301 -0.57572,-0.39433 -0.96758,-0.39433 z m 6.92303,1.14933 c -0.044,0.31776 -0.0722,0.72311 -0.0797,1.24127 -0.0124,0.93322 -0.0478,2.0018 -0.10601,3.2059 -0.071,1.44494 -0.14716,3.15102 -0.22807,5.11777 -0.11398,2.75946 -0.21911,5.00235 -0.31545,6.72826 -0.35456,-1.73596 -0.75348,-4.04384 -1.19668,-6.92367 -0.44323,-2.87993 -0.71798,-5.18824 -0.82433,-6.92417 -0.0683,-1.07367 -0.15364,-1.71069 -0.25495,-1.91138 -0.10131,-0.20056 -0.19085,-0.30089 -0.26944,-0.30089 -0.12157,0 -0.23049,0.13047 -0.32683,0.39131 -0.0938,0.25115 -0.1521,0.51679 -0.1748,0.79771 -0.0201,0.27092 -0.0343,0.78812 -0.0413,1.55071 -0.007,1.16479 -0.0705,2.99794 -0.18721,5.47342 v 10.07229 c 0.14794,0.23391 0.31132,0.47762 0.46751,0.70026 0.35248,-0.78038 1.96553,-1.47385 1.98376,-1.89581 l -1.42215,0.70327 c 0.157,-4.57575 -0.26067,-9.41478 -0.18461,-10.65902 0.55971,4.06397 1.14212,7.62112 1.74743,10.67157 0.0583,0.30098 0.1484,0.86802 0.26996,1.70091 0.0785,0.55196 0.1532,0.99861 0.22391,1.33973 0.0709,0.3307 0.12649,0.53112 0.16704,0.60179 0.0104,0.0171 0.0228,0.0318 0.0362,0.0447 7.7e-4,7.5e-4 0.001,0.002 0.002,0.003 0.0416,0.0391 0.0975,0.0588 0.16704,0.0588 0.15703,0 0.28377,-0.12559 0.38011,-0.37675 0.0989,-0.24077 0.16095,-0.50173 0.18616,-0.78263 0.0252,-0.28112 0.0352,0.37092 0.30461,0.89164 l 0.53369,1.03129 c 0,0 -0.0105,-5.88425 0.22806,-9.81711 0.0222,-0.36586 0.0384,-0.73405 0.0527,-1.10262 v -9.18366 c -0.12381,-0.40534 -0.27615,-0.73924 -0.27615,-1.04033 0,-0.54292 -0.0247,-1.01003 -0.073,-1.40704 h -0.17013 c -0.0423,0.26105 -0.0878,0.55708 -0.13704,0.55708 -0.0538,0 -0.10753,-0.27889 -0.16136,-0.55708 z m -3.53727,19.21879 c -0.004,0.01 -0.008,0.0188 -0.0114,0.0281 0.0219,0.017 0.0444,0.0336 0.0661,0.0507 -0.0177,-0.025 -0.0368,-0.0532 -0.0548,-0.0788 z m -31.19426,-16.70059 c -0.18437,0 -0.33371,0.0289 -0.33356,0.0643 1.3e-4,0.0355 0.14938,0.0643 0.33356,0.0643 0.18417,0 0.33344,-0.029 0.33357,-0.0643 1.5e-4,-0.0355 -0.14921,-0.0643 -0.33357,-0.0643 z m -27.53286,0.70377 c 0.33789,0 0.50681,0.32543 0.50681,0.97654 0,0.50639 -0.13635,1.1281 -0.40855,1.86466 -0.27218,0.7301 -0.54386,1.24623 -0.816055,1.54869 -0.478685,0.54572 -0.718316,0.97964 -0.718316,1.30206 0,0.46014 0.0331,0.76631 0.09877,0.91776 0.06809,0.15146 0.212272,0.22705 0.432852,0.22705 0.07979,0 0.204437,-0.10186 0.373379,-0.30592 0.16662,-0.20404 0.25895,-0.30642 0.27772,-0.30642 0.23931,0 0.43088,0.18435 0.57402,0.55257 0.14309,0.36168 0.21462,0.77579 0.21462,1.24277 0,0.76945 -0.17528,1.52936 -0.52491,2.27908 -0.34962,0.74319 -0.638843,1.11468 -0.868803,1.11468 h -0.172728 c -0.302591,0 -0.618293,1.31412 -0.747276,2.53127 -0.08989,-1.16199 -0.17364,-2.15457 -0.168072,-2.35344 l 0.03517,-1.33168 c 0,-0.42092 0.07069,-1.99269 0.211513,-4.71541 0.140794,-2.72276 0.227806,-4.22916 0.260641,-4.51849 0.03288,-0.2894 0.201761,-0.53264 0.506803,-0.7299 0.305044,-0.19727 0.615642,-0.29587 0.932412,-0.29587 z m -1.321304,17.40838 c 0.01069,0.14745 0.04392,0.3016 0.07136,0.40086 0.005,-0.005 0.0099,-0.0104 0.015,-0.0155 -0.01271,-0.0705 -0.04147,-0.19881 -0.08636,-0.38529 z" />
    </g>
    <path
       style="opacity:0.5;fill:#ff0000;stroke-width:0.463738"
       d="m 98.237932,228.36799 v 0.76739 h 0.506945 c -0.173347,-0.25381 -0.342346,-0.50963 -0.506945,-0.76739 z"
       id="path83"
       sodipodi:nodetypes="cccc" />
    <path
       style="opacity:0.5;fill:#ff0000;stroke-width:0.463738"
       d="m 163.15335,226.93138 c -0.44895,0.75066 -0.9346,1.48593 -1.45573,2.204 h 1.45573 z"
       id="path82"
       sodipodi:nodetypes="cccc" />
  </g>
</svg>
